<svg width="18" height="16" viewBox="0 0 18 16" fill="none" xmlns="http://www.w3.org/2000/svg">
<path d="M17.0353 7.15145H3.97499L11.792 0.365738C11.917 0.256363 11.8411 0.0532379 11.6759 0.0532379H9.70043C9.61338 0.0532379 9.53079 0.0844878 9.46606 0.140291L1.03079 7.45949C0.953534 7.52646 0.891574 7.60925 0.849109 7.70226C0.806645 7.79526 0.784668 7.89631 0.784668 7.99855C0.784668 8.10079 0.806645 8.20184 0.849109 8.29485C0.891574 8.38785 0.953534 8.47064 1.03079 8.53761L9.51517 15.9015C9.54865 15.9305 9.58883 15.9461 9.63124 15.9461H11.6736C11.8388 15.9461 11.9147 15.7407 11.7897 15.6336L3.97499 8.84788H17.0353C17.1335 8.84788 17.2138 8.76752 17.2138 8.66931V7.33002C17.2138 7.23181 17.1335 7.15145 17.0353 7.15145Z" fill="#595959"/>
</svg>
