<svg width="16" height="16" viewBox="0 0 16 16" fill="none" xmlns="http://www.w3.org/2000/svg">
<path d="M9.15591 7.99898L15.0153 1.01461C15.1135 0.898538 15.0309 0.722198 14.8791 0.722198H13.0979C12.993 0.722198 12.8925 0.769073 12.8233 0.849431L7.99074 6.61059L3.15815 0.849431C3.09118 0.769073 2.99073 0.722198 2.88359 0.722198H1.10234C0.950556 0.722198 0.867967 0.898538 0.966181 1.01461L6.82556 7.99898L0.966181 14.9834C0.94418 15.0092 0.930066 15.0409 0.925513 15.0745C0.92096 15.1082 0.92616 15.1424 0.940497 15.1732C0.954833 15.204 0.977703 15.23 1.00639 15.2482C1.03508 15.2664 1.06838 15.276 1.10234 15.2758H2.88359C2.9885 15.2758 3.08895 15.2289 3.15815 15.1485L7.99074 9.38738L12.8233 15.1485C12.8903 15.2289 12.9907 15.2758 13.0979 15.2758H14.8791C15.0309 15.2758 15.1135 15.0994 15.0153 14.9834L9.15591 7.99898Z" fill="#595959"/>
</svg>
